<?xml version="1.0" encoding="UTF-8" standalone="no"?>
<svg
   width="128.13393mm"
   height="128.13393mm"
   viewBox="0 0 128.13393 128.13393"
   version="1.1"
   id="svg8"
   inkscape:version="1.1 (c68e22c387, 2021-05-23)"
   sodipodi:docname="graph-db-pic.svg"
   xmlns:inkscape="http://www.inkscape.org/namespaces/inkscape"
   xmlns:sodipodi="http://sodipodi.sourceforge.net/DTD/sodipodi-0.dtd"
   xmlns="http://www.w3.org/2000/svg"
   xmlns:svg="http://www.w3.org/2000/svg"
   xmlns:rdf="http://www.w3.org/1999/02/22-rdf-syntax-ns#"
   xmlns:cc="http://creativecommons.org/ns#"
   xmlns:dc="http://purl.org/dc/elements/1.1/">
  <defs
     id="defs2" />
  <sodipodi:namedview
     id="base"
     pagecolor="#ffffff"
     bordercolor="#666666"
     borderopacity="1.0"
     inkscape:pageopacity="0.0"
     inkscape:pageshadow="2"
     inkscape:zoom="0.98994949"
     inkscape:cx="32.829958"
     inkscape:cy="196.47467"
     inkscape:document-units="mm"
     inkscape:current-layer="layer1"
     inkscape:document-rotation="0"
     showgrid="false"
     inkscape:snap-page="false"
     inkscape:window-width="1920"
     inkscape:window-height="1017"
     inkscape:window-x="-8"
     inkscape:window-y="-8"
     inkscape:window-maximized="1"
     inkscape:pagecheckerboard="0" />
  <metadata
     id="metadata5">
    <rdf:RDF>
      <cc:Work
         rdf:about="">
        <dc:format>image/svg+xml</dc:format>
        <dc:type
           rdf:resource="http://purl.org/dc/dcmitype/StillImage" />
        <dc:title />
      </cc:Work>
    </rdf:RDF>
  </metadata>
  <g
     inkscape:label="Слой 1"
     inkscape:groupmode="layer"
     id="layer1"
     transform="translate(-34.169041,-65.767853)">
    <rect
       style="fill:#ffffff;stroke:none;stroke-width:1.32292;fill-opacity:1"
       id="rect869"
       width="128.13393"
       height="128.13393"
       x="34.169041"
       y="65.767853" />
    <path
       style="fill:#000000;stroke-width:0.264583"
       d="m 59.701939,192.22895 c -4.67544,-1.25521 -8.49861,-4.43617 -10.45963,-8.70262 -1.15583,-2.51466 -1.53868,-4.32315 -1.5123,-7.14375 0.0782,-8.36034 6.63327,-15.13746 15.15542,-15.66879 2.21979,-0.13839 2.43634,-0.10431 7.00297,1.10215 0.44337,0.11713 1.33403,-0.99483 5.493,-6.8578 l 4.96382,-6.99759 -1.65893,-2.06086 c -1.9581,-2.43252 -3.36843,-5.03158 -4.16915,-7.68325 -0.31858,-1.05503 -0.66872,-1.91823 -0.77808,-1.91823 -0.24886,0 -14.67139,2.0526 -15.76866,2.24418 -0.69189,0.1208 -0.85024,0.30793 -1.12274,1.32679 -0.3873,1.44808 -1.9237,3.2172 -3.36343,3.8729 -0.64383,0.29323 -1.68564,0.48428 -2.66003,0.48782 -5.70706,0.0207 -8.51859,-6.68887 -4.49068,-10.71678 3.08308,-3.08308 7.86198,-2.28695 10.18776,1.69721 0.17919,0.30697 1.51233,0.18435 8.11369,-0.74634 4.34459,-0.61252 8.10762,-1.17279 8.36228,-1.24505 0.37658,-0.10686 0.4634,-0.43679 0.46502,-1.76721 0.004,-3.5723 0.92612,-7.14258 2.72944,-10.57209 l 1.08167,-2.05711 -0.78207,-0.76506 c -0.43014,-0.42079 -3.27177,-3.0274 -6.31472,-5.79247 -5.16173,-4.69036 -5.56971,-5.00365 -6.08542,-4.67301 -1.2399,0.79493 -3.63346,1.25254 -5.95072,1.13768 -1.87944,-0.0932 -2.58578,-0.26195 -4.06266,-0.97084 -8.43412,-4.04831 -8.43412,-16.131259 0,-20.179569 1.47688,-0.70889 2.18322,-0.87769 4.06266,-0.97084 4.91995,-0.24386 8.82223,2.0742 10.87447,6.45974 1.24783,2.66655 1.29133,6.37666 0.1069,9.117319 -0.13248,0.30655 1.29232,1.76083 5.4369,5.54938 3.08903,2.82369 5.94471,5.41021 6.34594,5.74783 l 0.72951,0.61384 1.55808,-1.06353 c 1.36239,-0.92996 3.25978,-1.89358 5.65565,-2.8723 0.65318,-0.26683 0.68727,-0.35912 0.47886,-1.29624 -0.12341,-0.55493 -1.61323,-7.25974 -3.31072,-14.899579 -1.69748,-7.63984 -3.12409,-13.93096 -3.17024,-13.98027 -0.0462,-0.0493 -0.59919,-0.20397 -1.22899,-0.34372 -1.60008,-0.35504 -3.02423,-1.36672 -3.92629,-2.78911 -2.69134,-4.243799 0.30562,-9.621643 5.35211,-9.604004 2.04638,0.0072 3.4688,0.610866 4.67437,1.983933 1.20722,1.374949 1.61936,2.470337 1.61246,4.285612 -0.007,1.98109 -0.65804,3.386608 -2.19264,4.737409 l -1.21605,1.07041 3.29475,14.79122 c 1.81212,8.135179 3.29475,14.852159 3.29475,14.926639 0,0.0745 1.57758,0.13768 3.50573,0.14045 3.68709,0.005 5.357301,0.31198 8.406321,1.54353 l 1.52503,0.61599 6.1085,-8.93029 6.10851,-8.930289 -0.93154,-1.54469 c -1.24045,-2.05693 -1.77013,-3.99097 -1.7595,-6.42449 0.0241,-5.52541 3.59059,-10.125316 8.9285,-11.515663 4.10135,-1.068267 8.09897,-0.0066 11.32009,3.006402 3.74697,3.504851 4.70109,9.185091 2.35346,14.011081 -2.2239,4.57163 -7.90255,7.37047 -12.83518,6.32607 l -1.79821,-0.38074 -0.47726,0.68507 c -1.12098,1.60907 -10.82803,15.829389 -11.246,16.474779 l -0.4588,0.70847 1.62823,1.93736 c 1.88547,2.24344 3.22736,4.53203 4.21966,7.19658 0.45814,1.23021 0.83412,1.86612 1.08287,1.83147 2.16223,-0.30119 17.87961,-3.33216 17.99012,-3.46926 0.0806,-0.10001 0.28935,-0.7505 0.46387,-1.44555 0.66865,-2.66312 2.76081,-4.65511 5.48267,-5.22017 4.29829,-0.89232 8.59127,2.61204 8.59127,7.01306 0,1.51768 -0.76451,3.46415 -1.84089,4.68698 -3.22596,3.66488 -9.34781,3.02682 -11.56247,-1.20513 -0.29935,-0.57203 -0.53085,-0.71827 -0.96943,-0.6124 -0.3169,0.0765 -4.14805,0.80274 -8.51367,1.61389 -4.36563,0.81114 -8.26492,1.54267 -8.6651,1.62561 -0.72036,0.1493 -0.72761,0.17183 -0.72761,2.26191 0,3.37272 -0.63068,6.49754 -1.97843,9.80247 -0.1465,0.35923 1.37388,1.48435 7.7968,5.76981 l 7.97879,5.32357 1.23735,-0.78391 c 2.5298,-1.60271 5.31255,-2.1253 8.15792,-1.53202 2.40245,0.50092 3.80956,1.22544 5.51799,2.84119 7.01312,6.63273 2.87708,18.40261 -6.75048,19.20975 -3.24621,0.27215 -6.42733,-0.87913 -8.75201,-3.16743 -2.31346,-2.27726 -3.62381,-5.78069 -3.3095,-8.84853 0.0934,-0.91148 0.236,-1.82978 0.31693,-2.04067 0.10474,-0.27296 -2.15515,-1.91956 -7.84358,-5.71496 l -7.99072,-5.33152 -0.96084,0.91228 c -1.76594,1.67669 -3.73684,3.06873 -5.82359,4.11318 -1.13762,0.56939 -2.20559,1.081 -2.37329,1.13689 -0.25055,0.0835 3.71403,15.32187 6.71849,25.82336 0.36512,1.27622 0.47434,1.40156 1.45028,1.66435 1.88865,0.50856 3.42632,2.61606 3.43142,4.70305 0.002,0.76633 -0.67544,2.4003 -1.26539,3.05268 -1.17694,1.30149 -3.57804,1.8586 -5.26435,1.22147 -1.01359,-0.38296 -2.18895,-1.52474 -2.6295,-2.55436 -0.74323,-1.73704 -0.2226,-4.19141 1.15297,-5.43538 0.50742,-0.45887 0.45968,-0.66961 -3.14684,-13.89037 -2.01415,-7.38343 -3.66208,-13.45806 -3.66208,-13.49918 0,-0.0411 -1.231961,0.005 -2.737671,0.10225 -3.38159,0.21863 -6.36281,-0.18427 -9.27177,-1.25302 -1.18017,-0.4336 -2.32792,-0.8484 -2.55054,-0.92178 -0.28918,-0.0953 -1.78287,1.79538 -5.23069,6.62092 -2.65426,3.71488 -4.88723,6.9141 -4.96217,7.10938 -0.0749,0.19528 0.26786,0.88428 0.76175,1.53112 1.17058,1.53305 2.13519,3.45797 2.71482,5.41751 0.63763,2.15561 0.64112,6.33226 0.007,8.45537 -1.69097,5.66214 -6.09609,9.95856 -11.66087,11.3731 -1.97726,0.50261 -5.89786,0.49025 -7.81576,-0.0247 z m 8.32445,-6.83409 c 1.75544,-0.85886 3.67131,-2.88547 4.58834,-4.85354 0.60335,-1.29489 0.70336,-1.85606 0.69404,-3.89416 -0.009,-1.9832 -0.12391,-2.6245 -0.68702,-3.83646 -0.99678,-2.14529 -2.60297,-3.80627 -4.65994,-4.81892 -1.62204,-0.79852 -1.97239,-0.86962 -4.28555,-0.86962 -2.20496,0 -2.70159,0.0896 -3.98237,0.71864 -2.30987,1.13444 -3.56178,2.37533 -4.68091,4.63974 -0.91625,1.85391 -0.99782,2.20011 -0.9785,4.1529 0.0293,2.95793 0.78801,4.83689 2.73393,6.77035 0.81308,0.80787 2.05451,1.73709 2.75874,2.06493 2.56518,1.1942 5.96786,1.16463 8.49924,-0.0739 z M 141.7083,164.88059 c 3.18282,-1.62376 3.54732,-6.11342 0.67144,-8.2704 -1.84589,-1.38446 -4.35887,-1.186 -6.21491,0.49081 -1.78874,1.61603 -2.06746,4.10499 -0.69237,6.18289 1.32036,1.99521 4.0731,2.70005 6.23584,1.5967 z m -41.66035,-17.73371 c 1.13633,-0.29063 2.85202,-0.96595 3.81263,-1.50072 2.23391,-1.24362 4.95611,-3.96582 6.19973,-6.19973 2.65862,-4.7757 2.66004,-11.03193 0.004,-15.82144 -2.01496,-3.63292 -6.15246,-6.7882 -10.267041,-7.8297 -2.02095,-0.51156 -5.67307,-0.51156 -7.69403,0 -5.6958,1.44174 -10.45166,6.1976 -11.8934,11.8934 -0.51156,2.02096 -0.51156,5.67307 0,7.69403 1.01975,4.02867 4.16192,8.2021 7.67063,10.18815 3.62488,2.0518 8.06099,2.62637 12.167881,1.57601 z M 61.024859,102.02293 c 0.76289,-0.38971 1.91736,-1.57826 2.34892,-2.418269 0.1633,-0.31785 0.29691,-1.18888 0.29691,-1.93562 0,-1.50168 -0.25497,-2.14742 -1.2891,-3.26476 -2.10274,-2.27195 -5.6503,-2.07723 -7.45131,0.40899 -1.46029,2.01586 -1.25511,4.50191 0.51786,6.274889 1.51839,1.51838 3.71384,1.88638 5.57672,0.93477 z M 129.04334,91.017041 c 1.34824,-0.40394 2.78263,-1.62558 3.45411,-2.94179 0.43641,-0.85542 0.52839,-1.43904 0.4488,-2.84761 -0.11693,-2.06941 -0.79353,-3.28357 -2.46827,-4.42933 -0.92666,-0.63397 -1.31062,-0.72405 -3.08606,-0.72405 -1.83184,0 -2.13835,0.0777 -3.17275,0.80475 -2.96203,2.08179 -3.38209,5.9182 -0.93102,8.50297 1.64309,1.73272 3.58645,2.28484 5.75519,1.63506 z"
       id="path855" />
    <path
       style="fill:#06b9ff;stroke:none;stroke-width:0.960786;fill-opacity:1"
       d="m 93.307585,147.63975 c -5.445591,-1.04529 -9.59012,-4.20569 -12.086807,-9.21674 -1.044863,-2.09714 -1.37346,-3.44437 -1.498275,-6.14291 -0.173209,-3.74483 0.58998,-6.57129 2.584877,-9.57308 2.486268,-3.74117 6.602662,-6.52655 10.699742,-7.24002 1.992607,-0.347 6.038519,-0.13695 7.598288,0.39447 2.79775,0.95321 5.11913,2.45029 7.22404,4.65885 1.83693,1.92738 2.77648,3.48284 3.57079,5.91161 0.50618,1.54777 0.61144,2.20792 0.69185,4.33918 0.20227,5.36114 -1.28695,9.00271 -5.18006,12.66674 -2.00794,1.88978 -3.25148,2.64686 -5.78272,3.52056 -1.832106,0.63237 -2.137667,0.68002 -4.651132,0.7252 -1.479611,0.0266 -2.906378,0.007 -3.170593,-0.0439 z"
       id="path859" />
    <path
       style="fill:#da5dff;stroke:none;stroke-width:1.38332;fill-opacity:1"
       d="m 61.047861,186.25065 c -2.559801,-0.84714 -5.251754,-3.15728 -6.370807,-5.46719 -0.539993,-1.11463 -0.655194,-1.79986 -0.668305,-3.97511 -0.01397,-2.31776 0.07295,-2.8091 0.735615,-4.15838 1.083541,-2.20626 2.419216,-3.63232 4.41498,-4.71375 1.664641,-0.902 1.885411,-0.94806 4.516833,-0.94228 2.488046,0.005 2.916557,0.0843 4.255297,0.78326 1.873492,0.97809 3.840372,2.94904 4.733059,4.74285 0.536109,1.07728 0.710497,1.91825 0.788247,3.80127 0.09189,2.22546 0.03284,2.56113 -0.741843,4.21658 -1.006647,2.15116 -2.968173,4.19908 -4.884787,5.09993 -1.491544,0.70107 -5.434474,1.05754 -6.778289,0.61282 z"
       id="path861" />
    <path
       style="fill:#40d5c2;stroke:none;stroke-width:1.41758;fill-opacity:1"
       d="m 137.59289,165.06508 c -3.85252,-1.74996 -4.16434,-6.58132 -0.56105,-8.69299 1.37971,-0.80856 3.40868,-0.93128 4.66408,-0.28208 1.11234,0.57521 2.21018,1.95338 2.60452,3.26954 0.69229,2.31067 -0.98723,5.27985 -3.35914,5.93855 -1.46979,0.40816 -2.02135,0.36978 -3.34841,-0.23302 z"
       id="path863" />
    <path
       style="fill:#fcd400;stroke:none;stroke-width:1.40614;fill-opacity:1"
       d="m 124.85282,90.72205 c -1.36525,-0.721251 -2.63206,-2.301228 -3.05431,-3.809375 -0.63288,-2.260429 0.24732,-4.541039 2.3368,-6.05465 1.0122,-0.733231 1.34909,-0.816796 3.293,-0.816796 1.97058,0 2.27265,0.07767 3.35696,0.863138 1.6503,1.195465 2.36377,2.874209 2.21493,5.211557 -0.0934,1.466292 -0.26395,1.965904 -0.97102,2.843859 -1.81776,2.257088 -4.83652,2.99839 -7.17636,1.762267 z"
       id="path865" />
    <path
       style="fill:#f83b51;stroke:none;stroke-width:1.42151;fill-opacity:1"
       d="m 57.827133,102.53057 c -1.364073,-0.41209 -2.424676,-1.2029 -3.207002,-2.39122 -1.486378,-2.25775 -0.558367,-5.604383 1.916003,-6.909583 1.452436,-0.766144 3.615526,-0.643304 4.949397,0.28107 2.073804,1.437148 2.956939,4.19909 1.954491,6.112555 -0.585189,1.117008 -2.152305,2.490588 -3.265081,2.861848 -1.087903,0.36297 -1.283834,0.36675 -2.347808,0.0453 z"
       id="path867" />
    <circle
       style="fill:#ffffff;fill-opacity:1;stroke:none;stroke-width:0.527777;stroke-dasharray:0.527777, 1.05556;stroke-opacity:1"
       id="path944"
       cx="143.59314"
       cy="122.55878"
       r="3.5907736" />
    <circle
       style="fill:#ffffff;fill-opacity:1;stroke:none;stroke-width:0.455456;stroke-dasharray:0.455456, 0.910914;stroke-opacity:1"
       id="path944-4"
       cx="50.721718"
       cy="137.82768"
       r="3.0987332" />
    <circle
       style="fill:#ffffff;fill-opacity:1;stroke:none;stroke-width:0.470536;stroke-dasharray:0.470536, 0.941074;stroke-opacity:1"
       id="path944-8"
       cx="83.100258"
       cy="73.382729"
       r="3.2013335" />
    <circle
       style="fill:#ffffff;fill-opacity:1;stroke:none;stroke-width:0.260169;stroke-dasharray:0.260169, 0.520341;stroke-opacity:1"
       id="path944-1"
       cx="110.47298"
       cy="184.73586"
       r="1.7700845" />
  </g>
</svg>
