<?xml version="1.0" encoding="UTF-8" standalone="no"?>
<svg
   xmlns:dc="http://purl.org/dc/elements/1.1/"
   xmlns:cc="http://creativecommons.org/ns#"
   xmlns:rdf="http://www.w3.org/1999/02/22-rdf-syntax-ns#"
   xmlns:svg="http://www.w3.org/2000/svg"
   xmlns="http://www.w3.org/2000/svg"
   xmlns:sodipodi="http://sodipodi.sourceforge.net/DTD/sodipodi-0.dtd"
   xmlns:inkscape="http://www.inkscape.org/namespaces/inkscape"
   width="30.427092mm"
   height="30.427065mm"
   viewBox="0 0 30.427091 30.427065"
   version="1.1"
   id="svg8"
   sodipodi:docname="settings.svg"
   inkscape:version="1.0.2 (e86c870879, 2021-01-15, custom)">
  <sodipodi:namedview
     pagecolor="#ffffff"
     bordercolor="#666666"
     borderopacity="1"
     objecttolerance="10"
     gridtolerance="10"
     guidetolerance="10"
     inkscape:pageopacity="0"
     inkscape:pageshadow="2"
     inkscape:window-width="1920"
     inkscape:window-height="1137"
     id="namedview15"
     showgrid="false"
     inkscape:zoom="2.1842398"
     inkscape:cx="233.95093"
     inkscape:cy="-72.972464"
     inkscape:window-x="-8"
     inkscape:window-y="-8"
     inkscape:window-maximized="1"
     inkscape:current-layer="svg8" />
  <defs
     id="defs2" />
  <metadata
     id="metadata5">
    <rdf:RDF>
      <cc:Work
         rdf:about="">
        <dc:format>image/svg+xml</dc:format>
        <dc:type
           rdf:resource="http://purl.org/dc/dcmitype/StillImage" />
        <dc:title />
      </cc:Work>
    </rdf:RDF>
  </metadata>
  <path
     style="fill:#000000;stroke-width:0.0310566"
     d="m 13.85261,30.38506 c -0.482418,-0.134141 -0.908392,-0.516979 -1.19214,-1.071429 -0.181062,-0.353798 -0.196319,-0.404296 -0.57626,-1.907406 l -0.328655,-1.300218 -0.326208,-0.11457 C 11.036725,25.85354 10.582941,25.660975 10.212549,25.475083 10.062289,25.399673 9.9229542,25.33797 9.9029132,25.33797 c -0.02004,0 -0.569978,0.341916 -1.222081,0.759811 -0.652103,0.417895 -1.268597,0.796522 -1.369987,0.841391 -0.630485,0.279024 -1.400809,0.281202 -1.955186,0.0055 -0.151115,-0.07515 -0.344251,-0.249226 -1.020225,-0.919565 -0.458603,-0.454779 -0.875089,-0.886103 -0.925528,-0.958495 -0.05044,-0.07239 -0.128878,-0.22607 -0.174312,-0.341505 -0.07427,-0.188699 -0.08266,-0.250612 -0.08316,-0.613475 -6.54e-4,-0.443697 0.05353,-0.701671 0.227907,-1.085985 0.04961,-0.109332 0.434418,-0.771897 0.855131,-1.472364 l 0.764938,-1.273582 -0.09451,-0.187093 c -0.117409,-0.232428 -0.37212,-0.849705 -0.461762,-1.119065 l -0.06716,-0.201797 -1.375733,-0.345585 c -1.4313,-0.35954 -1.664556,-0.433861 -2.02500096,-0.645198 -0.285248,-0.167247 -0.659565,-0.539537 -0.786282,-0.782027 -0.18505,-0.354119 -0.197867,-0.476906 -0.187279,-1.793998 0.0092,-1.149311 0.01159,-1.188984 0.08208,-1.385 0.152405,-0.423825 0.432299,-0.780008 0.827462,-1.052994 0.44755596,-0.309178 0.45750296,-0.312277 2.29369496,-0.714394 0.611787,-0.133981 1.116098,-0.248665 1.120695,-0.254855 0.0046,-0.0062 0.07523,-0.192878 0.156959,-0.414854 0.08173,-0.221977 0.232025,-0.587645 0.333981,-0.812589 l 0.185377,-0.408995 -0.716172,-1.1971041 c -0.805752,-1.346848 -0.892945,-1.508923 -1.012021,-1.88116 -0.102741,-0.321176 -0.13846,-0.823281 -0.07995,-1.123946 0.08501,-0.436824 0.145634,-0.518035 1.10053,-1.474151 0.806676,-0.807707 0.891626,-0.883486 1.103785,-0.984612 0.126416,-0.06026 0.334675,-0.132861 0.4628,-0.161348 0.445418,-0.09903 1.125465,-0.0126 1.54421,0.196293 0.05126,0.02555 0.633117,0.387215 1.293009,0.80366 0.659895,0.416445 1.213496,0.757172 1.230227,0.757172 0.01673,0 0.2177768,-0.08923 0.4467678,-0.198296 0.228994,-0.109063 0.612075,-0.270293 0.851293,-0.358293 0.239219,-0.088 0.464552,-0.172256 0.500743,-0.187241 0.0574,-0.02379 0.109532,-0.204031 0.408517,-1.412596 0.322938,-1.305402 0.352646,-1.405432 0.514742,-1.73334 0.313312,-0.63380498 0.698185,-0.99415698 1.230138,-1.15175898 0.236267,-0.07 2.504081,-0.07377 2.764175,-0.0046 0.410036,0.10905 0.887677,0.465308 1.158843,0.86434 0.26693,0.39279998 0.318826,0.55556498 0.647552,2.03095298 0.169636,0.761376 0.312088,1.387875 0.316557,1.392227 0.0045,0.0044 0.168896,0.06685 0.365399,0.138894 0.196502,0.07204 0.552998,0.221319 0.79222,0.331734 0.239218,0.110414 0.471516,0.215747 0.516212,0.234072 0.0751,0.03079 0.167151,-0.02101 1.212105,-0.681841 0.621959,-0.393339 1.216902,-0.758575 1.322089,-0.811639 0.448198,-0.226093 1.10456,-0.313108 1.5742,-0.208697 0.479003,0.106495 0.563845,0.169744 1.531294,1.141573 0.916839,0.920984 0.970379,0.988856 1.08582,1.376451 0.0779,0.261532 0.07085,0.758353 -0.01535,1.082437 -0.112325,0.422311 -0.249476,0.685345 -0.995101,1.908469 l -0.724563,1.1885691 0.20512,0.447673 c 0.112815,0.246223 0.277537,0.642989 0.366053,0.8817 0.09929,0.267765 0.179883,0.439763 0.210404,0.449008 0.02721,0.0082 0.623393,0.140286 1.324855,0.293428 0.701458,0.153143 1.372344,0.314914 1.490857,0.359491 0.627977,0.236205 1.171373,0.770184 1.343389,1.320108 0.0469,0.149937 0.05341,0.327811 0.05341,1.459153 0,1.256509 -0.0016,1.293415 -0.07007,1.490866 -0.179287,0.518032 -0.686421,0.998262 -1.305947,1.236667 -0.131717,0.05069 -0.854623,0.248314 -1.606453,0.439168 -0.751832,0.190856 -1.370088,0.350047 -1.373899,0.353758 -0.0038,0.0037 -0.05718,0.145664 -0.118588,0.315452 -0.122549,0.338826 -0.344753,0.861354 -0.48375,1.137578 l -0.08902,0.17691 0.687675,1.142538 c 0.98023,1.6286 1.085185,1.872508 1.092804,2.5396 0.0047,0.411431 -0.06785,0.684934 -0.256289,0.966146 -0.06727,0.100403 -0.490332,0.546433 -0.940121,0.991183 -0.88493,0.87501 -0.971901,0.939555 -1.425861,1.058192 -0.285696,0.07466 -0.809393,0.0663 -1.131718,-0.01806 -0.38136,-0.09982 -0.538325,-0.18595 -1.756513,-0.963873 -0.623017,-0.397852 -1.155324,-0.729408 -1.182901,-0.736793 -0.02757,-0.0074 -0.146892,0.03526 -0.265142,0.09477 -0.308375,0.155188 -0.836056,0.377102 -1.168855,0.491559 -0.157686,0.05423 -0.289524,0.100264 -0.292971,0.102292 -0.0034,0.002 -0.132889,0.575995 -0.287658,1.275482 -0.154768,0.699485 -0.31579,1.383557 -0.357829,1.520159 -0.216549,0.703682 -0.821297,1.326485 -1.474241,1.518255 -0.142796,0.04194 -0.357773,0.04913 -1.398036,0.04678 -0.881777,-0.002 -1.268812,-0.01377 -1.369091,-0.04165 z m 2.452169,-1.460182 c 0.106857,-0.05522 0.23192,-0.199651 0.316733,-0.365788 0.04455,-0.08727 0.83492,-3.50508 0.83492,-3.610467 0,-0.0052 0.304073,-0.110017 0.675719,-0.232941 0.757689,-0.250613 1.221632,-0.44623 1.949479,-0.821988 l 0.497079,-0.256621 0.62135,0.401364 c 1.679047,1.084587 2.406508,1.535576 2.563064,1.588967 0.115301,0.03932 0.224734,0.05384 0.336489,0.04465 l 0.165619,-0.01363 0.714538,-0.711291 0.714538,-0.711291 -0.01418,-0.190596 c -0.0083,-0.111852 -0.04708,-0.262398 -0.0938,-0.364394 -0.04379,-0.09559 -0.486291,-0.850943 -0.98333,-1.678563 l -0.903704,-1.504764 0.263089,-0.525128 c 0.358317,-0.715197 0.517237,-1.094918 0.755856,-1.806012 0.111732,-0.332967 0.211661,-0.615124 0.222066,-0.627013 0.01041,-0.01188 0.78085,-0.212515 1.712098,-0.445835 1.80488,-0.452201 2.10467,-0.552192 2.280059,-0.760483 l 0.08107,-0.09627 v -0.946059 c 0,-1.025437 -0.0013,-1.035092 -0.175866,-1.19416 -0.198313,-0.180834 -0.289576,-0.207934 -1.860931,-0.552578 -0.853323,-0.187162 -1.650029,-0.362768 -1.770463,-0.390244 l -0.218969,-0.04995 -0.179323,-0.565524 C 24.56474,11.771195 24.402018,11.372067 24.026536,10.621543 l -0.31876,-0.6371491 0.127385,-0.216611 c 0.07006,-0.119136 0.48524,-0.803378 0.922617,-1.520537 0.437378,-0.717159 0.827475,-1.380027 0.866884,-1.473042 0.03941,-0.09302 0.07828,-0.246694 0.08638,-0.341506 l 0.01473,-0.172384 -0.730758,-0.726028 -0.730761,-0.726025 -0.234467,0.01505 c -0.173696,0.01112 -0.276886,0.03698 -0.398132,0.09971 -0.09002,0.04657 -0.807046,0.49458 -1.593399,0.995573 l -1.429735,0.910901 -0.760659,-0.377721 c -0.771718,-0.383211 -1.130631,-0.529323 -1.906518,-0.776135 -0.237368,-0.07551 -0.442052,-0.156464 -0.45485,-0.179896 -0.0128,-0.02342 -0.193776,-0.809775 -0.402169,-1.747425 -0.208391,-0.93765 -0.391905,-1.739013 -0.407804,-1.780806 -0.04926,-0.129472 -0.221846,-0.348167 -0.325075,-0.41192 -0.09228,-0.05699 -0.159602,-0.0608 -1.075069,-0.0608 h -0.976632 l -0.09603,0.1009 c -0.186132,0.195577 -0.248276,0.38979 -0.695007,2.17213 l -0.438782,1.750618 -0.595051,0.196098 c -0.803404,0.264761 -1.157203,0.412217 -1.948559,0.812124 l -0.6721248,0.33965 -1.472142,-0.936956 c -0.809681,-0.515329 -1.541653,-0.973001 -1.626607,-1.017048 -0.118244,-0.06131 -0.211874,-0.08271 -0.399334,-0.09126 l -0.244876,-0.01116 -0.711758,0.708813 -0.711762,0.708812 v 0.14695 c 0,0.250405 0.124058,0.505766 0.713785,1.46922 0.313548,0.512258 0.74883,1.227918 0.967295,1.590356 l 0.397202,0.6589811 -0.321537,0.660467 c -0.372044,0.764212 -0.471764,1.011021 -0.720379,1.782939 l -0.181534,0.563649 -1.724483,0.379033 c -0.948466,0.208468 -1.781919,0.403718 -1.852117,0.43389 -0.0702,0.03017 -0.192528,0.11699 -0.27184,0.19293 l -0.144204,0.138077 v 1.041671 1.041671 l 0.109185,0.08322 c 0.217024,0.165415 0.475781,0.245474 2.073148,0.641435 0.892886,0.221329 1.675089,0.416258 1.738228,0.433173 l 0.114796,0.03075 0.160361,0.503757 c 0.221178,0.694821 0.369052,1.060155 0.704356,1.740206 0.158504,0.321467 0.288191,0.595503 0.288191,0.608967 0,0.02384 -0.399615,0.685877 -1.423426,2.358175 -0.528237,0.862827 -0.625901,1.062926 -0.650957,1.333708 l -0.01539,0.166371 0.695379,0.695822 c 0.778142,0.778637 0.793596,0.788723 1.109131,0.723745 0.09709,-0.01999 0.218471,-0.05727 0.269732,-0.08284 0.05126,-0.02557 0.772714,-0.477638 1.603231,-1.004598 l 1.510026,-0.958107 0.5440678,0.278512 c 0.800995,0.410034 1.10884,0.541027 1.934819,0.823298 0.587428,0.20075 0.747939,0.267153 0.756566,0.31299 0.006,0.032 0.198313,0.812569 0.427307,1.734603 0.421093,1.695487 0.487653,1.904987 0.671821,2.114599 l 0.09245,0.105227 h 0.97695 c 0.796984,0 0.993153,-0.0084 1.064909,-0.04545 z m -1.86189,-7.642336 c -2.699716,-0.36523 -4.8309558,-2.476453 -5.2351248,-5.185954 -0.0591,-0.396189 -0.06711,-1.244417 -0.01539,-1.627905 0.376098,-2.787955 2.5616568,-4.9517491 5.3427768,-5.2895741 3.049565,-0.370431 5.918361,1.6002891 6.665355,4.5787691 0.235957,0.94083 0.235643,2.037856 -9.82e-4,2.969495 -0.614079,2.419084 -2.671529,4.240036 -5.150627,4.558577 -0.447622,0.05751 -1.167101,0.05599 -1.606151,-0.0034 z m 1.777027,-1.53156 c 1.869961,-0.397047 3.309036,-1.904796 3.616278,-3.788849 0.0556,-0.340926 0.06236,-1.026654 0.01346,-1.366017 -0.145032,-1.006683 -0.620064,-1.928161 -1.364491,-2.646867 -0.695696,-0.671663 -1.494225,-1.076843 -2.442305,-1.239245 -0.476813,-0.08168 -1.301217,-0.06641 -1.727017,0.03196 -1.111788,0.256899 -2.075612,0.878586 -2.750394,1.774067 -0.385616,0.511737 -0.721165,1.292324 -0.834354,1.940957 -0.24794,1.420792 0.196031,2.888347 1.189347,3.931428 0.77169,0.810347 1.648239,1.251961 2.848654,1.435181 0.235309,0.03591 1.156892,-0.01022 1.450819,-0.07263 z"
     id="path31" />
</svg>
