<?xml version="1.0" encoding="UTF-8" standalone="no"?>
<svg
   xmlns:dc="http://purl.org/dc/elements/1.1/"
   xmlns:cc="http://creativecommons.org/ns#"
   xmlns:rdf="http://www.w3.org/1999/02/22-rdf-syntax-ns#"
   xmlns:svg="http://www.w3.org/2000/svg"
   xmlns="http://www.w3.org/2000/svg"
   xmlns:sodipodi="http://sodipodi.sourceforge.net/DTD/sodipodi-0.dtd"
   xmlns:inkscape="http://www.inkscape.org/namespaces/inkscape"
   width="29.241655mm"
   height="31.47781mm"
   viewBox="0 0 29.241655 31.47781"
   version="1.1"
   id="svg8"
   inkscape:version="1.0.2 (e86c870879, 2021-01-15, custom)"
   sodipodi:docname="expand_collapse_treetableviews.svg">
  <defs
     id="defs2" />
  <sodipodi:namedview
     id="base"
     pagecolor="#ffffff"
     bordercolor="#666666"
     borderopacity="1.0"
     inkscape:pageopacity="0.0"
     inkscape:pageshadow="2"
     inkscape:zoom="3.959798"
     inkscape:cx="33.784581"
     inkscape:cy="63.198357"
     inkscape:document-units="mm"
     inkscape:current-layer="layer1"
     inkscape:document-rotation="0"
     showgrid="false"
     inkscape:window-width="1609"
     inkscape:window-height="967"
     inkscape:window-x="49"
     inkscape:window-y="40"
     inkscape:window-maximized="0" />
  <metadata
     id="metadata5">
    <rdf:RDF>
      <cc:Work
         rdf:about="">
        <dc:format>image/svg+xml</dc:format>
        <dc:type
           rdf:resource="http://purl.org/dc/dcmitype/StillImage" />
        <dc:title />
      </cc:Work>
    </rdf:RDF>
  </metadata>
  <g
     inkscape:label="Слой 1"
     inkscape:groupmode="layer"
     id="layer1"
     transform="translate(-121.56736,-107.81085)">
    <path
       id="path856"
       style="fill:#000000;fill-opacity:1;stroke-width:0.0768217"
       d="m 135.58384,109.84199 -6.81779,6.81779 -6.81777,6.81777 a 18.437448,18.158799 0 0 0 0,1.6e-4 l 6.87509,6.87525 6.8751,6.87524 1.74799,-1.74679 c 0.96145,-0.96078 1.74814,-1.78159 1.74814,-1.82407 0,-0.0425 -2.27293,-2.35026 -5.05088,-5.12845 l -5.05073,-5.05118 5.03137,-5.03199 5.03139,-5.03182 -1.78597,-1.78595 z m 11.29279,1.5e-4 -6.79857,6.79843 -6.79874,6.79828 6.8562,6.85649 c 3.7709,3.77108 6.87329,6.85664 6.89415,6.85664 0.0208,0 0.82473,-0.7864 1.78641,-1.7474 l 1.74844,-1.74724 -5.08929,-5.0899 -5.08943,-5.08973 5.03137,-5.03199 5.03138,-5.03182 -1.78596,-1.78581 z" />
    <path
       style="fill:#000000;stroke-width:0.264583"
       id="path852"
       d="" />
    <path
       style="fill:#000000;stroke-width:0.264583"
       id="path850"
       d="" />
    <path
       style="fill:#000000;stroke-width:0.264583"
       id="path848"
       d="" />
    <path
       style="fill:#000000;stroke-width:0.264583"
       id="path845"
       d="" />
  </g>
</svg>
