<?xml version="1.0" encoding="UTF-8" standalone="no"?>
<svg
   xmlns:dc="http://purl.org/dc/elements/1.1/"
   xmlns:cc="http://creativecommons.org/ns#"
   xmlns:rdf="http://www.w3.org/1999/02/22-rdf-syntax-ns#"
   xmlns:svg="http://www.w3.org/2000/svg"
   xmlns="http://www.w3.org/2000/svg"
   xmlns:sodipodi="http://sodipodi.sourceforge.net/DTD/sodipodi-0.dtd"
   xmlns:inkscape="http://www.inkscape.org/namespaces/inkscape"
   width="29.241655mm"
   height="31.47781mm"
   viewBox="0 0 29.241655 31.47781"
   version="1.1"
   id="svg8"
   inkscape:version="1.0.2 (e86c870879, 2021-01-15, custom)"
   sodipodi:docname="open_file_1.svg">
  <defs
     id="defs2" />
  <sodipodi:namedview
     id="base"
     pagecolor="#ffffff"
     bordercolor="#666666"
     borderopacity="1.0"
     inkscape:pageopacity="0.0"
     inkscape:pageshadow="2"
     inkscape:zoom="3.959798"
     inkscape:cx="14.53296"
     inkscape:cy="41.107801"
     inkscape:document-units="mm"
     inkscape:current-layer="layer1"
     inkscape:document-rotation="0"
     showgrid="false"
     inkscape:window-width="1609"
     inkscape:window-height="967"
     inkscape:window-x="260"
     inkscape:window-y="154"
     inkscape:window-maximized="0" />
  <metadata
     id="metadata5">
    <rdf:RDF>
      <cc:Work
         rdf:about="">
        <dc:format>image/svg+xml</dc:format>
        <dc:type
           rdf:resource="http://purl.org/dc/dcmitype/StillImage" />
        <dc:title />
      </cc:Work>
    </rdf:RDF>
  </metadata>
  <g
     inkscape:label="Слой 1"
     inkscape:groupmode="layer"
     id="layer1"
     transform="translate(-121.56736,-107.81085)">
    <path
       style="fill:#000000;fill-opacity:1;stroke-width:0.0846667"
       d="m 126.80757,139.18708 c -0.14453,-0.0635 -0.35408,-0.24342 -0.46567,-0.39987 l -0.20288,-0.28446 -0.0254,-2.91049 c -0.0242,-2.77681 -0.0183,-2.90728 0.127,-2.84044 0.0838,0.0385 0.61907,0.0845 1.18951,0.10223 l 1.03717,0.0322 v 2.02509 2.0251 h 5.51893 c 5.43547,0 5.5245,-0.003 5.88664,-0.178 0.46711,-0.22613 0.75977,-0.61061 0.96383,-1.26629 0.14176,-0.45547 0.16127,-0.79399 0.16127,-2.79931 0,-2.53985 0.034,-2.73677 0.52407,-3.03556 0.26323,-0.16049 0.42257,-0.17089 2.62222,-0.17119 2.06451,-2.6e-4 2.40333,-0.0194 2.86009,-0.16158 0.65567,-0.20407 1.04015,-0.49672 1.26628,-0.96383 0.17743,-0.36653 0.178,-0.3962 0.178,-9.27331 v -8.9056 h -9.99066 -9.99067 v 1.84264 1.84263 l -1.18795,1.1842 -1.18794,1.1842 0.0238,-3.81 0.0238,-3.81 0.20308,-0.28475 c 0.39337,-0.55153 -0.35271,-0.5196 12.13436,-0.51945 10.65669,1.3e-4 11.38742,0.009 11.65954,0.14816 0.15967,0.0814 0.36922,0.2556 0.46566,0.38707 0.17476,0.23821 0.17543,0.27336 0.19754,10.41 0.0242,11.1191 0.0441,10.63141 -0.46432,11.3832 -0.33223,0.49122 -1.43921,1.70196 -3.65436,3.99693 -2.36065,2.44571 -4.60527,4.55475 -5.19574,4.88192 l -0.44443,0.24625 -6.985,0.0189 c -5.74327,0.0155 -7.03172,-0.002 -7.24778,-0.0965 z m -0.20171,-7.81619 c -0.16233,-0.0822 -0.34275,-0.24472 -0.40092,-0.36114 -0.0792,-0.15847 -0.10607,-1.05749 -0.10701,-3.57716 l -0.001,-3.3655 h -1.86538 c -2.13906,0 -2.37607,-0.0501 -2.58335,-0.54621 -0.10289,-0.24626 -0.10605,-0.34228 -0.0181,-0.55043 0.0586,-0.13868 1.94766,-2.13701 4.19794,-4.44073 4.29236,-4.39431 4.31744,-4.41613 4.83057,-4.20358 0.20492,0.0849 2.43543,2.32304 7.06454,7.08876 1.30193,1.34035 1.41247,1.47827 1.41247,1.7624 0,0.80675 -0.24838,0.88979 -2.66156,0.88979 h -1.90499 l -0.0239,3.46948 -0.0239,3.46948 -0.23469,0.23469 -0.23469,0.23468 -3.57531,0.0225 c -3.27603,0.0206 -3.60002,0.01 -3.87047,-0.127 z"
       id="path847" />
  </g>
</svg>
