<?xml version="1.0" encoding="UTF-8" standalone="no"?>
<svg
   xmlns:dc="http://purl.org/dc/elements/1.1/"
   xmlns:cc="http://creativecommons.org/ns#"
   xmlns:rdf="http://www.w3.org/1999/02/22-rdf-syntax-ns#"
   xmlns:svg="http://www.w3.org/2000/svg"
   xmlns="http://www.w3.org/2000/svg"
   width="29.241655mm"
   height="31.47781mm"
   viewBox="0 0 29.241655 31.47781"
   version="1.1"
   id="svg8">
  <defs
     id="defs2" />
  <metadata
     id="metadata5">
    <rdf:RDF>
      <cc:Work
         rdf:about="">
        <dc:format>image/svg+xml</dc:format>
        <dc:type
           rdf:resource="http://purl.org/dc/dcmitype/StillImage" />
        <dc:title></dc:title>
      </cc:Work>
    </rdf:RDF>
  </metadata>
  <g
     id="layer1"
     transform="translate(-121.56736,-107.81085)">
    <path
       style="fill:#000000;stroke-width:0.124308"
       d="m 133.10742,138.61102 c -0.10792,-0.16471 -0.33163,-0.97853 -0.49709,-1.80845 -0.43914,-2.20236 -0.45223,-2.22178 -2.14073,-3.17447 -1.7451,-0.9846 -1.92727,-0.99909 -3.91622,-0.31144 -1.5995,0.55302 -1.9568,0.59786 -2.22862,0.27968 -0.39357,-0.46063 -2.71178,-4.60942 -2.71178,-4.85312 0,-0.28652 0.36271,-0.67993 1.79199,-1.94373 0.53566,-0.47364 1.05083,-1.04521 1.14483,-1.27016 0.1131,-0.27073 0.17088,-0.91883 0.17088,-1.91697 0,-1.83107 -0.11004,-2.11588 -1.16501,-3.01498 -1.35862,-1.15795 -1.94269,-1.77822 -1.94269,-2.06318 0,-0.25815 2.30781,-4.42101 2.71054,-4.88925 0.25994,-0.30226 0.44932,-0.27946 1.91052,0.22996 0.70596,0.24611 1.56052,0.50242 1.89906,0.56957 0.58621,0.11624 0.66304,0.0978 1.61599,-0.38798 2.29827,-1.1716 2.41199,-1.30898 2.8134,-3.39836 0.33595,-1.74864 0.45601,-2.07318 0.81787,-2.21077 0.40275,-0.15311 5.15561,-0.15119 5.55922,0.003 0.35149,0.13365 0.4281,0.35383 0.80903,2.3251 0.38097,1.97159 0.40774,2.00356 2.67959,3.19939 1.31338,0.69134 1.34587,0.6907 3.58954,-0.0703 0.8473,-0.28742 1.58615,-0.46944 1.74431,-0.42975 0.19998,0.0503 0.64402,0.71642 1.63775,2.45727 0.74986,1.31362 1.38095,2.4597 1.40244,2.54686 0.0519,0.21053 -0.82908,1.15433 -1.79482,1.92281 -1.25715,1.00033 -1.35262,1.22853 -1.34832,3.22276 0.005,2.05169 0.0546,2.15621 1.71267,3.5758 1.73434,1.48481 1.73052,1.16985 0.0497,4.08017 -1.24768,2.16022 -1.4701,2.47717 -1.76305,2.51244 -0.18439,0.0221 -0.99785,-0.18757 -1.80766,-0.46616 -2.03249,-0.69917 -2.22583,-0.68519 -3.95944,0.28659 -0.90926,0.50972 -1.49712,0.92441 -1.64786,1.16251 -0.12891,0.20357 -0.37737,1.09147 -0.55211,1.97311 -0.17479,0.88163 -0.39948,1.72882 -0.49933,1.88265 -0.17957,0.27667 -0.21253,0.27969 -3.03489,0.27969 -2.85336,0 -2.85336,0 -3.04959,-0.29949 z m 5.32904,-6.09932 c 2.99589,-0.79267 5.45832,-3.09968 6.40345,-5.99925 0.40164,-1.23224 0.57903,-3.1341 0.39063,-4.1883 -0.35703,-1.99788 -1.0789,-3.46649 -2.39592,-4.87437 -1.92727,-2.06025 -4.33528,-3.0223 -7.17262,-2.86558 -7.57874,0.41858 -11.32799,9.3083 -6.37225,15.10906 2.12102,2.48267 5.95301,3.66345 9.14671,2.81844 z m -3.47002,-2.59407 c -2.18979,-0.45138 -4.12025,-2.18133 -4.78656,-4.28941 -0.35456,-1.12173 -0.35694,-2.76191 -0.005,-3.87219 1.04418,-3.29996 4.69391,-5.15726 7.96178,-4.05167 2.5862,0.87498 4.15826,2.95866 4.32608,5.73395 0.0777,1.2829 -0.11223,2.13858 -0.7346,3.31172 -1.24126,2.33976 -4.15485,3.70476 -6.76107,3.1676 z m 2.62903,-2.52747 c 0.86391,-0.29378 1.91561,-1.36583 2.27054,-2.31448 0.87046,-2.32646 -0.58281,-4.83951 -3.0674,-5.30427 -1.16816,-0.21854 -2.73835,0.32738 -3.52775,1.22645 -1.80984,2.06129 -1.16617,5.14549 1.31495,6.30075 0.78536,0.36566 2.08717,0.40527 3.00966,0.0916 z"
       id="path1506" />
  </g>
</svg>
